<svg t="1668655724812" class="icon" viewBox="0 0 1024 1024" version="1.1" xmlns="http://www.w3.org/2000/svg" p-id="2215" width="128" height="128"><path d="M561.548387 123.870968a33.032258 33.032258 0 1 1 0 66.064516h-82.580645V231.225806h140.155871a99.096774 99.096774 0 0 1 85.454452 48.920775l97.610322 166.201806h6.540387l37.574194-98.915097a33.032258 33.032258 0 0 1 30.885161-21.305806h64.181677a33.032258 33.032258 0 0 1 33.032259 33.032258v468.199226a33.032258 33.032258 0 0 1-33.032259 33.032258H877.171613a33.032258 33.032258 0 0 1-31.265032-22.412387l-38.069678-112.028904h-6.556903V875.354839a33.032258 33.032258 0 0 1-33.032258 33.032258H458.867613a99.096774 99.096774 0 0 1-45.617548-11.115355l-193.337807-100.252903a132.129032 132.129032 0 0 1-71.316645-117.297549V297.290323c0-17.441032 6.705548-33.957161 18.498064-46.245162 12.056774-12.535742 28.572903-19.819355 46.245162-19.819355L412.903226 231.225806v-41.290322h-82.580645a33.032258 33.032258 0 0 1-32.949678-30.554839L297.290323 156.903226a33.032258 33.032258 0 0 1 33.032258-33.032258zM619.123613 297.290323H214.660129v382.430967a66.064516 66.064516 0 0 0 35.674839 58.648775l193.32129 100.252903a33.032258 33.032258 0 0 0 15.211355 3.699613h276.347871v-149.404904a33.032258 33.032258 0 0 1 33.032258-33.032258h63.256774a33.032258 33.032258 0 0 1 31.281549 22.412387l38.053161 112.028904h7.498322V392.208516h-8.373677l-37.574194 98.898581a33.032258 33.032258 0 0 1-30.885161 21.305806h-48.210581a33.032258 33.032258 0 0 1-28.473806-16.301419l-107.206194-182.503226A33.032258 33.032258 0 0 0 619.123613 297.290323zM82.580645 379.870968a33.032258 33.032258 0 0 1 33.032258 33.032258v264.258064a33.032258 33.032258 0 1 1-66.064516 0V412.903226a33.032258 33.032258 0 0 1 33.032258-33.032258z m372.43871 35.608774a33.032258 33.032258 0 0 1 59.887484 27.879226l-33.676387 72.307613h50.952258a33.032258 33.032258 0 0 1 29.729032 47.434322l-54.222452 111.946323a33.032258 33.032258 0 0 1-59.458064-28.804129l31.248516-64.512H429.419355a33.032258 33.032258 0 0 1-29.943742-46.971871z" fill="#41B883" p-id="2216"></path></svg>