<svg t="1668676105378" class="icon" viewBox="0 0 1024 1024" version="1.1" xmlns="http://www.w3.org/2000/svg" p-id="8784" width="128" height="128"><path d="M448 256h128c35.3 0 64-28.7 64-64s-28.7-64-64-64H448c-35.3 0-64 28.7-64 64s28.7 64 64 64z" p-id="8785" fill="#41B883"></path><path d="M512 597.3m-85.3 0a85.3 85.3 0 1 0 170.6 0 85.3 85.3 0 1 0-170.6 0Z" p-id="8786" fill="#41B883"></path><path d="M725.3 213.3H704c0 58.9-47.8 106.7-106.7 106.7H426.7C367.8 320 320 272.2 320 213.3h-21.3c-46.9 0-85.3 38.4-85.3 85.3v512c0 46.9 38.4 85.3 85.3 85.3h426.7c46.9 0 85.3-38.4 85.3-85.3v-512c0-46.9-38.4-85.3-85.4-85.3z m-39.7 410.5c2.8 5 13.2 9.9 23.2 13.2 12.1 4.4 18.7 17.6 13.2 29.8l-14.9 34.7c-5 12.1-19.3 17.1-30.3 11-9.9-5-20.4-9.4-25.9-7.7-16 4.4-30.3 18.7-34.7 34.2-1.7 5.5 2.2 16 7.2 25.9 5.5 11.6 0 25.4-11.6 30.3L575.9 809c-11.6 5-24.8-1.7-29.2-13.8-3.3-10.5-7.7-20.4-12.7-23.7-13.8-8.3-34.2-8.3-48.5-0.6-5 2.8-9.9 13.2-13.2 23.2-4.4 12.1-17.6 18.7-29.8 13.2l-34.7-14.9c-12.1-5-17.1-19.3-11-30.3 5-9.9 9.4-20.4 7.7-25.9-4.4-16-18.7-30.3-34.2-34.7-5.5-1.7-16 2.2-25.9 7.2-11.6 5.5-25.4 0-30.3-11.6l-13.8-35.8c-5-11.6 1.7-24.8 13.8-29.2 10.5-3.3 20.4-7.7 23.7-12.7 8.3-13.8 8.3-34.2 0.5-48.5-2.8-5-13.2-9.9-23.2-13.2-12.1-4.4-18.7-17.6-13.2-29.8l14.9-34.7c5-12.1 19.3-17.1 30.3-11 9.9 5 20.4 9.4 25.9 7.7 16-4.4 30.3-18.7 34.7-34.2 1.7-5.5-2.2-16-7.2-25.9-5.5-11.6 0-25.4 11.6-30.3l35.8-13.8c11.6-5 24.8 1.7 29.2 13.8 3.3 10.5 7.7 20.4 12.7 23.7 13.8 8.3 34.2 8.3 48.5 0.6 5-2.8 9.9-13.2 13.2-23.2 4.4-12.1 17.6-18.7 29.8-13.2l34.7 14.9c12.1 5 17.1 19.3 11 30.3-5 9.9-9.4 20.4-7.7 25.9 4.4 16 18.7 30.3 34.2 34.7 5.5 1.7 16-2.2 25.9-7.2 11.6-5.5 25.4 0 30.3 11.6l13.8 35.8c5 11.6-1.7 24.8-13.8 29.2-10.5 3.3-20.4 7.7-23.7 12.7-8.1 13.8-8.1 34.2-0.4 48.5z" p-id="8787" fill="#41B883"></path></svg>